<svg fill="none" height="28" viewBox="0 0 28 28" width="28" xmlns="http://www.w3.org/2000/svg"><path d="m14 0c-7.73365 0-14 6.26635-14 14 0 7.7337 6.26635 14 14 14 7.7337 0 14-6.2663 14-14 0-7.73365-6.2663-14-14-14zm2.9212 19.4587c.5048.5048.5048 1.3326 0 1.8375-.2558.2557-.5856.3769-.9154.3769s-.6664-.1279-.9221-.3837l-6.32697-6.3471c-.46442-.5115-.45096-1.299.04039-1.7904l6.42118-6.44132c.5048-.50481 1.3259-.51154 1.8375 0 .5048.5048.5115 1.32596 0 1.8375l-5.5125 5.45192z" fill="#2a2238"/></svg>