<svg fill="none" height="28" viewBox="0 0 28 28" width="28" xmlns="http://www.w3.org/2000/svg"><path d="m14 28c7.7337 0 14-6.2663 14-14 0-7.73366-6.2663-14.00000143-14-14.00000143-7.73366 0-14.00000143 6.26634143-14.00000143 14.00000143 0 7.7337 6.26634143 14 14.00000143 14zm-2.9212-19.45866c-.5048-.5048-.5048-1.33269 0-1.83749.2558-.25577.5856-.37693.9154-.37693s.6664.12789.9221.38366l6.327 6.34712c.4644.5115.4509 1.299-.0404 1.7904l-6.4212 6.4413c-.5048.5048-1.3259.5116-1.8375 0-.5048-.5048-.5115-1.3259 0-1.8375l5.5125-5.4519z" fill="#2a2238"/></svg>