<svg xmlns="http://www.w3.org/2000/svg" xmlns:xlink="http://www.w3.org/1999/xlink" version="1.1" x="0px" y="0px" viewBox="0 0 100 100" style="enable-background:new 0 0 100 100;max-width:100%" xml:space="preserve" height="100%"><g style="" fill="currentColor"><g style="" fill="currentColor"><circle cx="25.4" cy="20.1" r="5.3" style="" fill="currentColor"></circle><polygon points="29.1,47.7 35.4,58.2 35.4,58.2 40.7,67 38.3,77 36.3,85.2 29.2,83.5 32.9,68.2 26.9,58.2 20.6,84.1 13.5,82.4     21.8,48.8 21.8,38.6 14.9,41.8 16.4,51.6 9.2,52.6 8,45 6.9,37.5 13.7,34.4 21.8,30.7 23.5,29.9 27.9,29.9 29.1,30.7 36.8,36.1     44.4,26 50.2,30.4 42.7,40.2 38.3,46 32.4,41.9 29.1,39.6   " style="" fill="currentColor"></polygon></g><g style="" fill="currentColor"><circle cx="73.3" cy="35.6" r="5.3" style="" fill="currentColor"></circle><polygon points="44.2,79.4 48.5,85.2 71.6,67.8 85.9,67.8 85.9,81.6 93.1,81.6 93.1,60.5 77,60.5 77,52.6 91.1,52.6 91.1,33.2     83.9,33.2 83.9,45.4 70.2,45.4 69.7,45.8 50.9,60.3 55.4,66.1 69.7,55 69.7,60.2   " style="" fill="currentColor"></polygon></g></g></svg>