<svg xmlns="http://www.w3.org/2000/svg" xmlns:xlink="http://www.w3.org/1999/xlink" version="1.1" x="0px" y="0px" viewBox="0 0 100 100" style="enable-background:new 0 0 100 100;max-width:100%" xml:space="preserve" height="100%"><g style="" fill="currentColor"><g style="" fill="currentColor"><circle cx="15.1" cy="26.5" r="5.3" style="" fill="currentColor"></circle><polygon points="52.3,43.1 28.4,59.3 23.8,85.2 16.8,84 22.1,53.7 18.9,44 13.4,48.1 16.6,57.8 9.9,60 7.4,52.6 5,45.5 11,41     16.5,36.9 22.5,32.4 39.6,19.6 43.8,25.3 24.9,39.5 28.7,50.9 48.8,36.9   " style="" fill="currentColor"></polygon></g><g style="" fill="currentColor"><circle cx="77.6" cy="20.1" r="5.3" style="" fill="currentColor"></circle><polygon points="95,37 93.9,44.5 92.4,54.5 85.2,53.4 87,41.3 81.2,38.6 81.2,48.8 81.3,48.7 89.5,82.4 82.4,84.1 76.1,58.2     70.1,68.2 73.8,83.5 66.8,85.2 64.8,77 62.3,67 67.6,58.2 74,47.7 74,38.3 65.6,42.1 67.2,52.9 66.4,53.1 60.1,54 59.7,51.3     58.8,45.3 57.6,37.8 64.5,34.7 74,30.3 74.9,29.9 79.5,29.9 81.2,30.7 88.1,33.8   " style="" fill="currentColor"></polygon></g></g></svg>