<svg xmlns="http://www.w3.org/2000/svg" xmlns:xlink="http://www.w3.org/1999/xlink" version="1.1" x="0px" y="0px" viewBox="0 0 100 100" enable-background="new 0 0 100 100" xml:space="preserve" style="max-width:100%" height="100%"><g style="" fill="currentColor"><path d="M52.943,31.383c0-3.367-2.733-6.101-6.1-6.101c-3.367,0-6.1,2.733-6.1,6.101c0,3.366,2.733,6.097,6.1,6.097   C50.21,37.479,52.943,34.749,52.943,31.383L52.943,31.383z" style="" fill="currentColor"></path></g><g style="" fill="currentColor"><path d="M39.6,70.044l1.81,15.541h8.673l-2.016-17.267c-0.22-1.912-1.123-3.684-2.531-4.999l-7.624-7.097   c-1.742-1.624-4.468-1.519-6.087,0.225c-1.62,1.732-1.519,4.458,0.223,6.083l7.083,6.594C39.394,69.364,39.558,69.689,39.6,70.044z   " style="" fill="currentColor"></path></g><g style="" fill="currentColor"><path d="M64.681,29.257l5.835,8.998c1.291,1.992,0.721,4.658-1.274,5.949c-1.995,1.295-4.661,0.726-5.953-1.271l-6.353-9.804   c-1.347-2.076-1.672-4.637-0.891-6.978l3.961-11.897h9.079l-4.564,13.707C64.377,28.393,64.436,28.868,64.681,29.257z" style="" fill="currentColor"></path></g><g style="" fill="currentColor"><path d="M82.053,32.745l9.944-3.666l-4.59-7.488l-9.792,3.616c-3.484,1.287-5.648,4.771-5.261,8.454l1.198,11.398   c0.047,0.464-0.123,0.925-0.456,1.249l-5.72,5.473c-0.486,0.464-1.229,0.544-1.811,0.206L42.351,38.176   c-2.823-1.688-6.379-1.494-9.007,0.472l-10.083,7.544c-2.046,1.526-3.253,3.939-3.253,6.496v14.546   c0,0.396-0.152,0.772-0.426,1.055L8.444,79.7l6.168,6.021L26.32,73.714c1.477-1.515,2.303-3.544,2.303-5.662v-14.36   c0-0.48,0.224-0.924,0.603-1.202l8.201-6.143c0.49-0.362,1.148-0.401,1.671-0.088l23.376,13.908   c3.13,1.861,7.121,1.401,9.758-1.117l7.525-7.198c1.814-1.732,2.726-4.214,2.465-6.707l-1.144-10.834   C81.012,33.632,81.412,32.981,82.053,32.745z" style="" fill="currentColor"></path></g><g style="" fill="currentColor"><path d="M62.225,65.771c0-3.375-2.733-6.105-6.1-6.105c-3.371,0-6.1,2.73-6.1,6.105c0,3.366,2.729,6.096,6.1,6.096   C59.491,71.866,62.225,69.137,62.225,65.771L62.225,65.771z" style="" fill="currentColor"></path></g></svg>