<svg xmlns="http://www.w3.org/2000/svg" xmlns:xlink="http://www.w3.org/1999/xlink" version="1.1" x="0px" y="0px" viewBox="0 0 100 100" style="enable-background:new 0 0 100 100;max-width:100%" xml:space="preserve" height="100%"><g style="" fill="currentColor"><g style="" fill="currentColor"><circle cx="25.5" cy="23.9" r="5.3" style="" fill="currentColor"></circle><polygon points="48,17 44.8,33.3 36.4,37.6 29.2,41.3 29.2,53.1 33.4,83.6 26.2,84.6 22.7,59.3 17.1,64.5 17.1,79.4 9.8,79.4     9.8,61.4 21.9,50 21.9,43.5 17.9,46.5 11.9,50.9 8.8,44.1 4.8,35.2 11.4,32.2 14.8,39.7 21.9,34.4 23,33.6 28.2,33.6 38.5,28.4     40.9,15.4   " style="" fill="currentColor"></polygon></g><g style="" fill="currentColor"><circle cx="74.5" cy="23.9" r="5.3" style="" fill="currentColor"></circle><polygon points="52,17 55.2,33.3 63.6,37.6 70.8,41.3 70.8,53.1 66.6,83.6 73.8,84.6 77.3,59.3 82.9,64.5 82.9,79.4 90.2,79.4     90.2,61.4 78.1,50 78.1,43.5 82.1,46.5 88.1,50.9 91.2,44.1 95.2,35.2 88.6,32.2 85.2,39.7 78.1,34.4 77,33.6 71.8,33.6     61.5,28.4 59.1,15.4   " style="" fill="currentColor"></polygon></g></g></svg>